HIERARCHY
ROOT Hips
{
 OFFSET 0.000000 0.000000 0.000000
 CHANNELS 6 Xposition Yposition Zposition Yrotation Xrotation Zrotation
 JOINT Chest
 {
  OFFSET 0.000000 10.354800 0.006500
  CHANNELS 3 Yrotation Xrotation Zrotation
  JOINT Chest2
  {
   OFFSET 0.000000 10.435800 -0.013200
   CHANNELS 3 Yrotation Xrotation Zrotation
   JOINT Chest3
   {
    OFFSET 0.000000 10.393700 0.000000
    CHANNELS 3 Yrotation Xrotation Zrotation
    JOINT Chest4
    {
     OFFSET 0.000000 10.383100 0.000000
     CHANNELS 3 Yrotation Xrotation Zrotation
     JOINT Neck
     {
      OFFSET 0.000000 15.694000 0.000000
      CHANNELS 3 Yrotation Xrotation Zrotation
      JOINT Head
      {
       OFFSET 0.000000 9.711000 -0.028000
       CHANNELS 3 Yrotation Xrotation Zrotation
       End Site
       {
        OFFSET 0.000000 18.578700 -0.014800
       }
      }
     }
     JOINT RightCollar
     {
      OFFSET -3.157200 10.367500 0.000000
      CHANNELS 3 Yrotation Xrotation Zrotation
      JOINT RightShoulder
      {
       OFFSET -14.482500 0.000000 0.000000
       CHANNELS 3 Yrotation Xrotation Zrotation
       JOINT RightElbow
       {
        OFFSET 0.000000 -31.707800 0.000000
        CHANNELS 3 Yrotation Xrotation Zrotation
        JOINT RightWrist
        {
         OFFSET 0.000000 -25.659300 0.000000
         CHANNELS 3 Yrotation Xrotation Zrotation
         End Site
         {
          OFFSET 0.000000 -18.994300 0.000000
         }
        }
       }
      }
     }
     JOINT LeftCollar
     {
      OFFSET 3.157200 10.367500 0.000000
      CHANNELS 3 Yrotation Xrotation Zrotation
      JOINT LeftShoulder
      {
       OFFSET 14.482500 0.000000 0.000000
       CHANNELS 3 Yrotation Xrotation Zrotation
       JOINT LeftElbow
       {
        OFFSET 0.000000 -31.707800 0.000000
        CHANNELS 3 Yrotation Xrotation Zrotation
        JOINT LeftWrist
        {
         OFFSET 0.000000 -25.659300 0.000000
         CHANNELS 3 Yrotation Xrotation Zrotation
         End Site
         {
          OFFSET 0.000000 -18.994300 0.000000
         }
        }
       }
      }
     }
    }
   }
  }
 }
 JOINT RightHip
 {
  OFFSET -8.365600 -0.032100 -0.003200
  CHANNELS 3 Yrotation Xrotation Zrotation
  JOINT RightKnee
  {
   OFFSET 0.000000 -43.980000 0.003100
   CHANNELS 3 Yrotation Xrotation Zrotation
   JOINT RightAnkle
   {
    OFFSET 0.000000 -42.882800 0.005200
    CHANNELS 3 Yrotation Xrotation Zrotation
    JOINT RightToe
    {
     OFFSET 0.000000 -4.915500 10.826300
     CHANNELS 3 Yrotation Xrotation Zrotation
     End Site
     {
      OFFSET 0.000000 -1.517500 6.175900
     }
    }
   }
  }
 }
 JOINT LeftHip
 {
  OFFSET 8.365600 -0.032100 -0.003200
  CHANNELS 3 Yrotation Xrotation Zrotation
  JOINT LeftKnee
  {
   OFFSET 0.000000 -43.980000 0.003100
   CHANNELS 3 Yrotation Xrotation Zrotation
   JOINT LeftAnkle
   {
    OFFSET 0.000000 -42.882800 0.005200
    CHANNELS 3 Yrotation Xrotation Zrotation
    JOINT LeftToe
    {
     OFFSET 0.000000 -4.915500 10.826300
     CHANNELS 3 Yrotation Xrotation Zrotation
     End Site
     {
      OFFSET 0.000000 -1.517500 6.175900
     }
    }
   }
  }
 }
}
MOTION
Frames: 13
Frame Time: 0.008333
0.000000 91.618600 0.000000 0.000000 -5.767877 0.000000 0.000000 11.653817 0.000000 0.000000 -5.885947 0.000000 0.000000 -0.000000 0.000000 0.000000 -0.000000 0.000000 0.000000 12.528835 0.000000 0.000000 0.711642 0.000000 0.000000 -0.000000 0.000000 0.000000 0.000000 -90.000000 0.000000 -2.309062 0.000000 0.000000 2.309062 0.000000 0.000000 -0.000000 0.000000 0.000000 -0.000000 90.000000 0.000000 -2.309062 0.000000 0.000000 2.309062 0.000000 0.000000 8.520406 0.000000 0.000000 1.905762 0.000000 -0.000000 -4.658285 0.000000 0.000000 -0.000000 0.000000 0.000000 8.520406 0.000000 0.000000 1.905762 0.000000 -0.000000 -4.658285 0.000000 0.000000 -0.000000 0.000000
6.317320 126.398583 32.522108 -179.459359 -18.604541 -5.463726 -2.283494 9.852466 3.050967 -0.164525 0.619302 0.196616 -0.273258 1.081528 0.362405 -2.125870 9.099398 2.833587 -7.288415 22.340567 3.625848 -8.886930 -1.302295 5.686823 2.793470 4.965622 -3.779268 16.812623 -9.065845 -6.563862 49.596909 -38.829063 -35.105248 -6.738408 0.438556 -12.005076 -2.921037 7.275515 -0.943448 -9.778370 -13.916559 1.866140 -56.155171 -32.768348 40.515996 -13.002759 5.678980 10.612337 10.312795 -44.472665 -7.166449 -174.609390 57.832669 -170.901374 -3.922869 -38.220915 13.834181 -0.005190 -0.003006 -0.002357 -6.475323 -45.228720 6.563631 162.595908 62.825959 163.603121 -1.229244 -35.116953 -6.434135 0.000148 -0.002421 0.000067
6.315820 126.398226 32.522826 -179.448511 -18.603012 -5.455221 -2.289056 9.858649 3.054090 -0.167708 0.618286 0.194644 -0.276019 1.076709 0.353523 -2.123052 9.107294 2.843320 -7.264065 22.320471 3.609280 -8.854906 -1.334254 5.657998 2.818117 4.961119 -3.782056 16.802635 -9.043181 -6.557288 49.582131 -38.845367 -35.088344 -6.752659 0.414360 -12.062129 -2.927213 7.266056 -0.948336 -9.760580 -13.908869 1.835082 -56.139033 -32.734938 40.503683 -12.937455 5.634858 10.754697 10.316780 -44.468809 -7.179488 -174.601116 57.834407 -170.894016 -3.925601 -38.218065 13.826380 -0.003865 -0.002978 -0.001755 -6.475238 -45.227840 6.548827 162.586971 62.823672 163.591703 -1.239123 -35.123146 -6.432377 0.001086 -0.001118 0.000493
6.315983 126.398085 32.523534 -179.439573 -18.603426 -5.455688 -2.292442 9.864687 3.062425 -0.165512 0.620964 0.197267 -0.276597 1.078057 0.354334 -2.129824 9.110308 2.846967 -7.238928 22.298215 3.588825 -8.820353 -1.364950 5.628571 2.838533 4.951739 -3.790560 16.782867 -9.038880 -6.560733 49.567179 -38.860297 -35.001439 -6.781290 0.355566 -12.188197 -2.931789 7.253181 -0.956666 -9.758165 -13.900482 1.806450 -56.035380 -32.679376 40.428380 -12.881266 5.533202 10.943161 10.314476 -44.465559 -7.177853 -174.587663 57.835257 -170.879819 -3.928546 -38.209920 13.825497 -0.002133 -0.003051 -0.000968 -6.476282 -45.227156 6.544049 162.584326 62.823464 163.591420 -1.243145 -35.124794 -6.430847 0.002187 -0.000759 0.000993
6.315143 126.397934 32.524179 -179.428925 -18.605513 -5.451724 -2.298176 9.872238 3.064661 -0.167606 0.620757 0.197824 -0.272834 1.087961 0.366010 -2.139342 9.112070 2.845570 -7.221528 22.273759 3.566863 -8.777000 -1.393716 5.594405 2.873441 4.936795 -3.801173 16.756376 -9.024493 -6.546226 49.561999 -38.854122 -34.978972 -6.793151 0.319836 -12.258850 -2.936160 7.235449 -0.961456 -9.747181 -13.890051 1.774851 -56.021997 -32.663643 40.425141 -12.777088 5.486018 11.099207 10.315990 -44.458498 -7.180024 -174.569551 57.835402 -170.868451 -3.933526 -38.205458 13.834926 -0.002975 -0.003722 -0.001351 -6.450229 -45.226927 6.509657 162.554997 62.821703 163.578708 -1.243787 -35.126183 -6.428943 0.000381 -0.000252 0.000173
6.315055 126.398002 32.524596 -179.413984 -18.610113 -5.453931 -2.305160 9.883220 3.071237 -0.162969 0.628727 0.208080 -0.282577 1.078687 0.352756 -2.141440 9.125220 2.854551 -7.218034 22.253073 3.553289 -8.717839 -1.418698 5.549670 2.922074 4.920563 -3.804761 16.722855 -8.998524 -6.507610 49.562456 -38.834095 -34.981264 -6.790982 0.294050 -12.317628 -2.943781 7.221149 -0.956007 -9.713887 -13.858971 1.721778 -55.979060 -32.643553 40.395992 -12.687320 5.395636 11.300089 10.321354 -44.445809 -7.175854 -174.540647 57.837078 -170.836389 -3.934003 -38.199766 13.839792 -0.000149 -0.001843 -0.000068 -6.439314 -45.222708 6.489840 162.543623 62.821386 163.576375 -1.238220 -35.130117 -6.433548 -0.001269 0.000275 -0.000576
6.314071 126.397930 32.525346 -179.399347 -18.613841 -5.451481 -2.310672 9.893755 3.073283 -0.163620 0.630156 0.208651 -0.289208 1.075524 0.348811 -2.143075 9.129971 2.856901 -7.189099 22.244460 3.540276 -8.713583 -1.430330 5.543884 2.964493 4.912153 -3.805177 16.682016 -8.989538 -6.496773 49.542795 -38.832593 -34.932466 -6.814218 0.240057 -12.417548 -2.952658 7.213185 -0.953974 -9.682934 -13.837847 1.698926 -55.907746 -32.635694 40.325465 -12.590724 5.295549 11.525194 10.325597 -44.436035 -7.180279 -174.534620 57.839428 -170.834827 -3.942898 -38.195639 13.853989 -0.002528 -0.003044 -0.001148 -6.419095 -45.220310 6.462606 162.535255 62.822346 163.580652 -1.238958 -35.133884 -6.431569 -0.000976 0.000744 -0.000443
6.313712 126.397840 32.526451 -179.388904 -18.616628 -5.451363 -2.315894 9.900487 3.074426 -0.161033 0.635011 0.213114 -0.287409 1.077420 0.350548 -2.151578 9.129186 2.853967 -7.126507 22.248386 3.512693 -8.742403 -1.450798 5.567142 2.984335 4.903412 -3.809954 16.660169 -8.982335 -6.483239 49.510130 -38.834659 -34.868716 -6.842115 0.173696 -12.531116 -2.961123 7.203123 -0.952150 -9.644327 -13.813425 1.679998 -55.858223 -32.638588 40.259556 -12.469049 5.200035 11.766444 10.333312 -44.428472 -7.183782 -174.533775 57.841111 -170.829814 -3.952231 -38.193694 13.864728 -0.002626 -0.003676 -0.001192 -6.411258 -45.218329 6.448677 162.530201 62.822304 163.582957 -1.241145 -35.136469 -6.431066 0.000306 0.001192 0.000139
6.313890 126.397691 32.527936 -179.384459 -18.617929 -5.452318 -2.315770 9.905653 3.078183 -0.160001 0.638727 0.218161 -0.282182 1.090968 0.360169 -2.159794 9.129462 2.847764 -7.100613 22.233839 3.489916 -8.653286 -1.480349 5.491117 3.030515 4.892063 -3.824440 16.613839 -8.980770 -6.444903 49.468617 -38.826278 -34.809012 -6.862248 0.103405 -12.643420 -2.970052 7.177677 -0.954045 -9.600321 -13.786149 1.663025 -55.807567 -32.648038 40.179237 -12.327983 5.095765 12.033920 10.344147 -44.423773 -7.185947 -174.534619 57.842452 -170.823154 -3.950439 -38.190881 13.861570 -0.001633 -0.002581 -0.000741 -6.401579 -45.218782 6.440295 162.521516 62.821275 163.580660 -1.245838 -35.139018 -6.429516 0.000613 0.001277 0.000278
6.313277 126.397674 32.528778 -179.375149 -18.622054 -5.450398 -2.320410 9.916163 3.082283 -0.158912 0.638992 0.218997 -0.283126 1.093082 0.360937 -2.163417 9.156109 2.863112 -7.076156 22.205099 3.451242 -8.596076 -1.498500 5.436843 3.075236 4.870324 -3.858690 16.561493 -8.980320 -6.400401 49.421463 -38.821243 -34.737156 -6.885238 0.020175 -12.767770 -2.977319 7.134297 -0.970322 -9.574690 -13.767776 1.650739 -55.726892 -32.654658 40.074045 -12.162653 4.978082 12.326021 10.346415 -44.416044 -7.192035 -174.537616 57.842911 -170.824067 -3.947155 -38.189264 13.859841 -0.001432 -0.002790 -0.000650 -6.375719 -45.218534 6.415873 162.520175 62.820169 163.591045 -1.245274 -35.143648 -6.424056 -0.000115 0.000492 -0.000052
6.311143 126.397645 32.529172 -179.349781 -18.626281 -5.445062 -2.332414 9.930934 3.088775 -0.165918 0.635591 0.210719 -0.284371 1.095170 0.361833 -2.169880 9.159708 2.863316 -7.044179 22.204786 3.424365 -8.551784 -1.508868 5.395169 3.103045 4.865399 -3.876540 16.533482 -8.970547 -6.326939 49.367132 -38.796712 -34.673208 -6.909146 -0.078302 -12.906823 -2.980058 7.116927 -0.976906 -9.519173 -13.728397 1.638460 -55.680217 -32.683610 39.975858 -11.973923 4.844323 12.642750 10.339680 -44.404191 -7.208140 -174.536835 57.841475 -170.825281 -3.946147 -38.193215 13.860694 -0.001673 -0.004823 -0.000760 -6.356616 -45.218122 6.372476 162.495718 62.817262 163.583513 -1.242504 -35.152079 -6.439746 -0.000680 -0.000492 -0.000309
6.310953 126.397667 32.529865 -179.339624 -18.629057 -5.445394 -2.335141 9.939183 3.095900 -0.166817 0.636797 0.211350 -0.286846 1.095101 0.359871 -2.174782 9.157454 2.859861 -7.017281 22.212240 3.407933 -8.490947 -1.511117 5.340277 3.112566 4.863343 -3.883250 16.532535 -8.969628 -6.281058 49.269728 -38.783035 -34.556206 -6.937496 -0.193517 -13.062431 -2.981380 7.106231 -0.976816 -9.466764 -13.687155 1.628649 -55.611039 -32.721922 39.858483 -11.769288 4.693379 12.983565 10.356858 -44.393392 -7.213028 -174.531049 57.839275 -170.810073 -3.954561 -38.202482 13.870948 -0.001488 -0.003674 -0.000676 -6.331769 -45.217643 6.344695 162.469845 62.815873 163.578957 -1.243930 -35.156753 -6.443927 0.000398 0.000297 0.000180
6.310658 126.397518 32.530905 -179.329553 -18.628170 -5.444545 -2.338906 9.943874 3.102543 -0.167751 0.637947 0.212006 -0.291318 1.090705 0.351975 -2.179716 9.169515 2.870933 -6.975212 22.213820 3.374632 -8.433536 -1.516431 5.289350 3.153290 4.856236 -3.906168 16.499039 -8.976508 -6.254797 49.143063 -38.794772 -34.395282 -6.970463 -0.325566 -13.235737 -2.984131 7.077936 -0.984911 -9.427122 -13.646120 1.621450 -55.498207 -32.765558 39.713532 -11.548576 4.528142 13.341665 10.357062 -44.390931 -7.217437 -174.529353 57.835258 -170.807984 -3.956121 -38.208483 13.869350 -0.002736 -0.004120 -0.001242 -6.291447 -45.227462 6.300798 162.430545 62.808870 163.572753 -1.240969 -35.157723 -6.449916 -0.000244 -0.001857 -0.000111
